<?xml version="1.0" encoding="UTF-8"?>
<svg id="Layer_1" xmlns="http://www.w3.org/2000/svg" version="1.1" viewBox="0 0 1080 1080">
  <!-- Generator: Adobe Illustrator 29.5.1, SVG Export Plug-In . SVG Version: 2.1.0 Build 141)  -->
  <defs>
    <style>
      .st0 {
        fill: #2b3990;
      }
    </style>
  </defs>
  <path class="st0" d="M892.7,398.67c2.3,2.15,2.17-.82,2.69-1.84,11.47-22.47,20.05-46.69,32.3-68.83,15.04-16.7,40.31-3.31,33.02,18.77-12.06,36.53-39.21,75.37-52.21,112.46-5.08,8.59-15.57,12.26-24.89,8.8-30.83-15.41-62.88-28.48-93.83-43.61-6.56-3.21-21.69-9.44-25.25-14.95-8.31-12.87.46-30.11,15.95-30.32,25.97,8.82,50.25,22.47,75.26,33.77.9.29.82-1.01.65-1.94-1.54-8.71-12.9-30.82-17.49-39.57-126.08-240.29-466.23-260.73-619.48-35.92-111.49,163.55-71.57,386.07,89.35,499.92,183.49,129.83,442.25,62.23,537.05-140.63,4.31-9.22,13.73-38.75,18.32-43.92,13.07-14.72,36.51-3.18,33.41,16.56-3.6,22.9-30.52,70.81-43.74,91.1-132.17,202.91-413.74,242.99-597.82,84.28-177.71-153.22-184.78-430.97-14.26-592.62,198.66-188.33,518.91-127.35,637.8,116.9,2.26,4.64,11.92,30.41,13.17,31.58Z"/>
  <path class="st0" d="M693.83,743.14c-13.12,12.83-31.36,20.34-49.49,22.48-81.78-4.67-170.63,6.29-251.58.07-37.12-2.85-70.32-32.94-73.26-70.67-4.2-53.82,3.27-112.98,0-167.36,3.9-36.31,34.58-67.54,71.37-69.32-4.19-52.54,19.64-103.43,66.55-128.6,60.86-32.65,137.1-11.3,170.96,48.63,14.26,25.23,17.78,49.91,17.19,78.76,41.41,6.33,69.31,36.39,72.11,78.31,3.32,49.7-2.63,103.02,0,153.11-1.91,20.22-9.16,40.25-23.84,54.61ZM429.76,427.85c-1.03,9.12.75,19.86,0,29.18h177.65v-20.1c0-36.07-32.15-72.92-66.41-81.41-49.1-12.16-105.42,20.65-111.23,72.33ZM390.55,496.27c-18.84,4.16-31.66,18.71-33.38,37.93-4.43,49.54,3.26,105.37,0,155.57,2.98,23.41,21.6,37.99,44.67,38.32,75.9-3.99,156.92,5.13,232.21,0,22.59-1.54,42.25-12.58,44.67-37.02,4.93-49.89-3.7-107.52.06-158.23-1.66-19.22-17.75-35.3-36.96-36.96l-251.26.38Z"/>
  <path class="st0" d="M537.67,615.49c-1.68,2.9.49,32.43-.28,39.28-2.73,24.36-36.2,25.54-38.89-1.32-.9-9.01,1.99-30.92-.23-37.38-.7-2.04-4.16-2.83-5.68-4.69-25.58-31.42,6.07-72.49,41.39-55.65,19.76,9.42,24.88,34.67,12.25,52.13-2.19,3.04-8.28,7.13-8.57,7.63Z"/>
</svg>